<svg xmlns="http://www.w3.org/2000/svg" xmlns:xlink="http://www.w3.org/1999/xlink" viewBox="0 0 1456.04 1107.87"><defs><style>.cls-1,.cls-10,.cls-11,.cls-12,.cls-13,.cls-14,.cls-15,.cls-16,.cls-17,.cls-18,.cls-19,.cls-2,.cls-20,.cls-21,.cls-22,.cls-23,.cls-3,.cls-4,.cls-5,.cls-6,.cls-7,.cls-8,.cls-9{fill:none;stroke:#000;stroke-miterlimit:10;}.cls-1{stroke-width:1.76px;}.cls-2{stroke-width:1.69px;}.cls-3{stroke-width:1.83px;}.cls-4{stroke-width:2.09px;}.cls-5{stroke-width:2.74px;}.cls-6{stroke-width:1.88px;}.cls-7{stroke-width:1.78px;}.cls-8{stroke-width:1.52px;}.cls-9{stroke-width:1.75px;}.cls-10{stroke-width:1.22px;}.cls-11{stroke-width:1.31px;}.cls-12{stroke-width:1.58px;}.cls-13{stroke-width:1.18px;}.cls-14{stroke-width:1.14px;}.cls-15{stroke-width:1.23px;}.cls-16{stroke-width:1.4px;}.cls-17{stroke-width:1.84px;}.cls-18{stroke-width:1.26px;}.cls-19{stroke-width:1.02px;}.cls-20{stroke-width:1.18px;}.cls-21{stroke-width:0.82px;}.cls-22{stroke-width:0.88px;}.cls-23{stroke-width:1.06px;}</style></defs><g id="Template_Fox_MainLine.JPG" data-name="Template Fox_MainLine.JPG"><image width="432" height="623" transform="translate(549.37 0) scale(1.78)" xlink:href="Fox_MainLine.JPG"/></g><g id="Outline"><path class="cls-1" d="M1078.54,492.08" transform="translate(-54.56 47.28)"/><path class="cls-1" d="M1078.54,592.86" transform="translate(-54.56 47.28)"/><path class="cls-1" d="M1128.92,542.47" transform="translate(-54.56 47.28)"/><path class="cls-2" d="M1170,225.86" transform="translate(-54.56 47.28)"/><path class="cls-2" d="M1061.5,341.35" transform="translate(-54.56 47.28)"/><path class="cls-2" d="M953.42,916.68h-2.35" transform="translate(-54.56 47.28)"/><path class="cls-2" d="M901.62,345.41" transform="translate(-54.56 47.28)"/><path class="cls-2" d="M902.28,345.29" transform="translate(-54.56 47.28)"/><path class="cls-2" d="M907.34,344.43" transform="translate(-54.56 47.28)"/><path class="cls-2" d="M905.2,344.78" transform="translate(-54.56 47.28)"/><path class="cls-2" d="M904.21,345" transform="translate(-54.56 47.28)"/><path class="cls-2" d="M903.73,345" transform="translate(-54.56 47.28)"/><path class="cls-2" d="M914.12,343.43" transform="translate(-54.56 47.28)"/><path class="cls-3" d="M1009.24,586.53c-4.21,1.52-6.89,2.85-7.32,2.58A54.09,54.09,0,0,1,1009.24,586.53Z" transform="translate(-54.56 47.28)"/><path class="cls-3" d="M1096.16,581.83a138.4,138.4,0,0,1-14.12,1C1088,582.54,1093,582.17,1096.16,581.83Z" transform="translate(-54.56 47.28)"/><path class="cls-4" d="M1072.32,407.53c.88,1.55,5.64,9,11.57,20.41.64,1.24,1.29,2.51,1.95,3.82" transform="translate(-54.56 47.28)"/><path class="cls-4" d="M1067.11,405.65" transform="translate(-54.56 47.28)"/><path class="cls-4" d="M901.62,345.41" transform="translate(-54.56 47.28)"/><path class="cls-4" d="M902.15,345.32" transform="translate(-54.56 47.28)"/><path class="cls-4" d="M1167.23,540.34c-8.08,10.87-19.52,22.14-33.23,29.24l-.06,0c-8.55,5.58-20.88,9.82-35.27,11.89l-.28,0c-.29.05-.63.1-1,.14l-.53.07h-.08l-.61.07c-3.16.34-8.18.71-14.12,1H1082c-15.1.82-36.08,1.3-47.37,0-10.16-1.14-19.33,1.44-25.36,3.62a54.09,54.09,0,0,0-7.32,2.58c-30.76,13.31-57.88,56.63-66.19,111.11-9.38,61.53,8.4,116.66,40.57,132.86-38.42-10.92-74-40.17-74-40.17,7.61,10.29,15,19.29,22.15,27.16-80.36-21-111.05-83.15-111.67-84.44,13.63,7.46,20.46,5.67,20.46,5.67C808.11,709,813.2,646.11,813.2,646.11c11.38,25.74,31,33.45,31,33.45-10.9-80.15,46.4-115.48,46.4-115.48s-3.51,5.4-4.23,21.77c9.76-28.39,38.4-44,57.24-50.05,11.69-3.77,36.17-4.42,63.51-4.26,17.35.11,35.84.54,53,.71q3.32,0,6.6-.09c41.5-1.49,78.21-20.19,78.21-20.19A36.34,36.34,0,0,0,1167.23,540.34Z" transform="translate(-54.56 47.28)"/><path class="cls-4" d="M1096.16,581.83a138.4,138.4,0,0,1-14.12,1C1088,582.54,1093,582.17,1096.16,581.83Z" transform="translate(-54.56 47.28)"/><path class="cls-5" d="M1009.24,586.53c-4.21,1.52-6.89,2.85-7.32,2.58A54.09,54.09,0,0,1,1009.24,586.53Z" transform="translate(-54.56 47.28)"/><path class="cls-4" d="M1180,515.89c-1.27,5.85-5.78,15-12.81,24.45A36.34,36.34,0,0,1,1144.86,512a34.06,34.06,0,0,1-.38-4.88c0-.14,0-.29,0-.44a35.86,35.86,0,0,1,1.34-9.78c1,.59,1.91,1.13,2.79,1.61a37.91,37.91,0,0,0,5,2.39c9.87,3.57,24.68,3.67,26.59,10.38A10.11,10.11,0,0,1,1180,515.89Z" transform="translate(-54.56 47.28)"/><path class="cls-4" d="M970.62,440.51s21.7-18,50.35-9.16,34.59,38.53,34.59,38.53" transform="translate(-54.56 47.28)"/><path class="cls-6" d="M1308.51,223.84" transform="translate(-54.56 47.28)"/><path class="cls-6" d="M1284.9,318.79" transform="translate(-54.56 47.28)"/><path class="cls-7" d="M1121.25,916.66l-3,0H953.42l2.24,0Z" transform="translate(-54.56 47.28)"/><path class="cls-8" d="M1136.45,482.74" transform="translate(-54.56 47.28)"/><path class="cls-8" d="M901.62,345.41" transform="translate(-54.56 47.28)"/><path class="cls-8" d="M902.15,345.32" transform="translate(-54.56 47.28)"/><path class="cls-8" d="M914.31,343.41" transform="translate(-54.56 47.28)"/><path class="cls-8" d="M1072.32,407.53c.88,1.55,5.64,9,11.57,20.41.64,1.24,1.29,2.51,1.95,3.82" transform="translate(-54.56 47.28)"/><path class="cls-8" d="M1067.11,405.65" transform="translate(-54.56 47.28)"/><path class="cls-8" d="M1180,515.89c-1.27,5.85-5.78,15-12.81,24.45-8.08,10.87-19.52,22.14-33.23,29.24l-.06,0c-8.55,5.58-20.88,9.82-35.27,11.89l-.28,0c-.29.05-.63.1-1,.14l-.53.07h-.08l-.61.07a138.4,138.4,0,0,1-14.12,1H1082c-15.1.82-36.08,1.3-47.37,0-10.16-1.14-19.33,1.44-25.36,3.62-4.21,1.52-6.89,2.85-7.32,2.58-30.76,13.31-57.88,56.63-66.19,111.11-9.38,61.53,8.4,116.66,40.57,132.86-38.42-10.92-74-40.17-74-40.17,7.61,10.29,15,19.29,22.15,27.16-80.36-21-111.05-83.15-111.67-84.44,13.63,7.46,20.46,5.67,20.46,5.67C808.11,709,813.2,646.11,813.2,646.11c11.38,25.74,31,33.45,31,33.45-10.9-80.15,46.4-115.48,46.4-115.48s-3.51,5.4-4.23,21.77c9.76-28.39,38.4-44,57.24-50.05,11.69-3.77,36.17-4.42,63.51-4.26,17.35.11,35.84.54,53,.71q3.32,0,6.6-.09c41.5-1.49,78.21-20.19,78.21-20.19a34.06,34.06,0,0,1-.38-4.88c0-.14,0-.29,0-.44a35.86,35.86,0,0,1,1.34-9.78c1,.59,1.91,1.13,2.79,1.61a37.91,37.91,0,0,0,5,2.39c9.87,3.57,24.68,3.67,26.59,10.38A10.11,10.11,0,0,1,1180,515.89Z" transform="translate(-54.56 47.28)"/><rect class="cls-8" x="610.56" y="119.23" width="844.73" height="844.73"/><path class="cls-9" d="M950,916.66h-.58c-.94,0-1.87,0-2.8-.06C947.78,916.62,948.91,916.65,950,916.66Z" transform="translate(-54.56 47.28)"/><path class="cls-9" d="M1180.22,511.25c-1.91-6.71-16.72-6.81-26.59-10.38a37.91,37.91,0,0,1-5-2.39c-.88-.48-1.81-1-2.79-1.61a35.86,35.86,0,0,0-1.34,9.78c0,.15,0,.3,0,.44a34.06,34.06,0,0,0,.38,4.88s-36.71,18.7-78.21,20.19q-3.29.12-6.6.09c-17.13-.17-35.62-.6-53-.71-27.34-.16-51.82.49-63.51,4.26-18.84,6.07-47.48,21.66-57.24,50.05.72-16.37,4.23-21.77,4.23-21.77s-57.3,35.33-46.4,115.48c0,0-19.58-7.71-31-33.45,0,0-5.09,62.86,20.06,95.19,0,0-6.83,1.79-20.46-5.67.62,1.29,31.31,63.44,111.67,84.44-7.13-7.87-14.54-16.87-22.15-27.16,0,0,35.56,29.25,74,40.17-32.17-16.2-49.95-71.33-40.57-132.86,8.31-54.48,35.43-97.8,66.19-111.11.43.27,3.11-1.06,7.32-2.58,6-2.18,15.2-4.76,25.36-3.62,11.29,1.26,32.27.78,47.37,0h.07a138.4,138.4,0,0,0,14.12-1l.61-.07h.08l.53-.07c.38,0,.72-.09,1-.14l.28,0c14.39-2.07,26.72-6.31,35.27-11.89l.06,0c13.71-7.1,25.15-18.37,33.23-29.24,7-9.45,11.54-18.6,12.81-24.45A10.11,10.11,0,0,0,1180.22,511.25Zm-94.37-79.48,1.57,3.1c.4.8.8,1.6,1.21,2.4q1,2.09,2.11,4.17l.79,1.55c.44.87.89,1.73,1.33,2.58s.82,1.59,1.24,2.37c.29.56.58,1.11.88,1.66s.47.87.7,1.3q.79,1.49,1.59,2.88c.2.37.41.74.62,1.1.41.72.82,1.42,1.22,2.1.61,1,1.21,2,1.81,2.91.19.3.38.6.58.89.08.13.17.26.26.39l.59.85a28.44,28.44,0,0,0,3,3.63c2.6,2.6,6,5.62,9.74,8.79,1.45,1.22,3,2.46,4.51,3.7.49.4,1,.79,1.47,1.18,3.91,3.1,8,6.21,12,9.07l12.77,8.48m-73.49-89.34c.88,1.55,5.64,9,11.57,20.41.64,1.24,1.29,2.51,1.95,3.82" transform="translate(-54.56 47.28)"/><path class="cls-9" d="M1072.32,407.53c.88,1.55,5.64,9,11.57,20.41.64,1.24,1.29,2.51,1.95,3.82" transform="translate(-54.56 47.28)"/><path class="cls-9" d="M1067.11,405.65" transform="translate(-54.56 47.28)"/><path class="cls-9" d="M1145.81,496.87" transform="translate(-54.56 47.28)"/><path class="cls-10" d="M910.39,344l0,0" transform="translate(-54.56 47.28)"/><path class="cls-10" d="M911.72,345.56" transform="translate(-54.56 47.28)"/><path class="cls-8" d="M883.57,427.37" transform="translate(-54.56 47.28)"/><path class="cls-11" d="M946.66,916.6c1.12,0,2.25,0,3.38.06h-.58C948.52,916.65,947.59,916.63,946.66,916.6Z" transform="translate(-54.56 47.28)"/><path class="cls-11" d="M950,916.66h0Z" transform="translate(-54.56 47.28)"/><path class="cls-11" d="M1180,515.89c-1.27,5.85-5.78,15-12.81,24.45-8.08,10.87-19.52,22.14-33.23,29.24l-.06,0c-8.55,5.58-20.88,9.82-35.27,11.89l-.28,0c-.29.05-.63.1-1,.14l-.53.07h-.08l-.61.07a138.4,138.4,0,0,1-14.12,1H1082c-15.1.82-36.08,1.3-47.37,0-10.16-1.14-19.33,1.44-25.36,3.62-4.21,1.52-6.89,2.85-7.32,2.58-30.76,13.31-57.88,56.63-66.19,111.11-9.38,61.53,8.4,116.66,40.57,132.86-38.42-10.92-74-40.17-74-40.17,7.61,10.29,15,19.29,22.15,27.16-80.36-21-111.05-83.15-111.67-84.44,13.63,7.46,20.46,5.67,20.46,5.67C808.11,709,813.2,646.11,813.2,646.11c11.38,25.74,31,33.45,31,33.45-10.9-80.15,46.4-115.48,46.4-115.48s-3.51,5.4-4.23,21.77c9.76-28.39,38.4-44,57.24-50.05,11.69-3.77,36.17-4.42,63.51-4.26,17.35.11,35.84.54,53,.71q3.32,0,6.6-.09c41.5-1.49,78.21-20.19,78.21-20.19a34.06,34.06,0,0,1-.38-4.88c0-.14,0-.29,0-.44a35.86,35.86,0,0,1,1.34-9.78c1,.59,1.91,1.13,2.79,1.61a37.91,37.91,0,0,0,5,2.39c9.87,3.57,24.68,3.67,26.59,10.38A10.11,10.11,0,0,1,1180,515.89Z" transform="translate(-54.56 47.28)"/><path class="cls-11" d="M950,342.22" transform="translate(-54.56 47.28)"/><path class="cls-2" d="M887.87,348.24" transform="translate(-54.56 47.28)"/><path class="cls-12" d="M914.72,343.24c-.41.3-.83.61-1.24.93l-2.47.54-.3.07a365.52,365.52,0,0,0-40,11.77h0c-15.81-12.67-25.77-33.53-32-54.91,19.41-38,51-52.29,51-52.29C890.12,250.88,892.17,309.53,914.72,343.24Z" transform="translate(-54.56 47.28)"/><path class="cls-2" d="M788.43,390.8" transform="translate(-54.56 47.28)"/><path class="cls-2" d="M835.22,288.37" transform="translate(-54.56 47.28)"/><path class="cls-2" d="M1365.36,559.36a336.06,336.06,0,0,0-16-75.41c-1-2.9-2-5.77-3-8.64q-.81-2.25-1.68-4.49c-.49-1.29-1-2.56-1.5-3.83a199.72,199.72,0,0,1-15.79-34.16q-1.65-4.63-3.09-9.38c-16.75-29.74-26.56-65.79-26.56-104.66,0-63.53,26.21-119.56,66.1-152.75-53.12-5.89-117.45,11.07-175.47,50.82-50.8,34.81-87,80.45-104.45,126a186.48,186.48,0,0,0-7.82,25.62c-.3,1.34-.59,2.68-.85,4a146.75,146.75,0,0,0-2.91,35.08,1.76,1.76,0,0,1-.12-.23l0-.05a117.27,117.27,0,0,0-9.35-12.33A135.37,135.37,0,0,0,1038,372.69C1014.22,356,983.71,345,950,342.22h-1.48a122.62,122.62,0,0,0-35,2l-2.47.54-.3.07a365.52,365.52,0,0,0-40,11.77h0c-15.81-12.67-25.77-33.53-32-54.91-1.31-4.42-2.46-8.87-3.46-13.27A309.14,309.14,0,0,1,828,225.86s-103.54,56.77-58.19,187.29C706.37,465,665.12,540,665.12,629.44c0,158.64,126.88,287.24,283.4,287.24h.94c-.94,0-1.87,0-2.8-.06,1.12,0,2.25,0,3.38.06h171.21c112.59-31.22,205.84-121.92,235.83-244.92A339.12,339.12,0,0,0,1365.36,559.36ZM1180,515.89c-1.27,5.85-5.78,15-12.81,24.45-8.08,10.87-19.52,22.14-33.23,29.24l-.06,0c-8.55,5.58-20.88,9.82-35.27,11.89l-.28,0c-.29.05-.63.1-1,.14l-.53.07h-.08l-.61.07a138.4,138.4,0,0,1-14.12,1H1082c-15.1.82-36.08,1.3-47.37,0-10.16-1.14-19.33,1.44-25.36,3.62-4.21,1.52-6.89,2.85-7.32,2.58-30.76,13.31-57.88,56.63-66.19,111.11-9.38,61.53,8.4,116.66,40.57,132.86-38.42-10.92-74-40.17-74-40.17,7.61,10.29,15,19.29,22.15,27.16-80.36-21-111.05-83.15-111.67-84.44,13.63,7.46,20.46,5.67,20.46,5.67C808.11,709,813.2,646.11,813.2,646.11c11.38,25.74,31,33.45,31,33.45-10.9-80.15,46.4-115.48,46.4-115.48s-3.51,5.4-4.23,21.77c9.76-28.39,38.4-44,57.24-50.05,11.69-3.77,36.17-4.42,63.51-4.26,17.35.11,35.84.54,53,.71q3.32,0,6.6-.09c41.5-1.49,78.21-20.19,78.21-20.19a34.06,34.06,0,0,1-.38-4.88c0-.14,0-.29,0-.44a35.86,35.86,0,0,1,1.34-9.78c1,.59,1.91,1.13,2.79,1.61a37.91,37.91,0,0,0,5,2.39c9.87,3.57,24.68,3.67,26.59,10.38A10.11,10.11,0,0,1,1180,515.89Z" transform="translate(-54.56 47.28)"/><path class="cls-13" d="M332.81,588.5" transform="translate(-54.56 47.28)"/><path class="cls-13" d="M332.81,656.18" transform="translate(-54.56 47.28)"/><path class="cls-13" d="M366.65,622.34" transform="translate(-54.56 47.28)"/><path class="cls-14" d="M394.23,409.68" transform="translate(-54.56 47.28)"/><path class="cls-14" d="M321.37,487.25" transform="translate(-54.56 47.28)"/><path class="cls-14" d="M214,490" transform="translate(-54.56 47.28)"/><path class="cls-14" d="M214.42,489.9" transform="translate(-54.56 47.28)"/><path class="cls-14" d="M217.82,489.32" transform="translate(-54.56 47.28)"/><path class="cls-14" d="M216.38,489.56" transform="translate(-54.56 47.28)"/><path class="cls-14" d="M215.72,489.67" transform="translate(-54.56 47.28)"/><path class="cls-14" d="M215.4,489.73" transform="translate(-54.56 47.28)"/><path class="cls-14" d="M222.38,488.65" transform="translate(-54.56 47.28)"/><path class="cls-15" d="M286.27,651.93c-2.83,1-4.63,1.92-4.92,1.74A35.17,35.17,0,0,1,286.27,651.93Z" transform="translate(-54.56 47.28)"/><path class="cls-15" d="M344.65,648.78c-3,.38-6.22.62-9.49.7C339.15,649.25,342.52,649,344.65,648.78Z" transform="translate(-54.56 47.28)"/><path class="cls-16" d="M328.63,531.71c.6,1,3.79,6,7.78,13.7l1.31,2.57" transform="translate(-54.56 47.28)"/><path class="cls-16" d="M325.14,530.44" transform="translate(-54.56 47.28)"/><path class="cls-16" d="M214,490" transform="translate(-54.56 47.28)"/><path class="cls-16" d="M214.34,489.92" transform="translate(-54.56 47.28)"/><path class="cls-16" d="M392.38,620.91c-5.42,7.3-13.11,14.87-22.32,19.64l0,0c-5.74,3.75-14,6.6-23.69,8l-.18,0c-.2,0-.43.07-.68.1l-.36,0h-.05l-.41,0c-2.13.23-5.5.47-9.49.7h0c-10.15.55-24.24.87-31.82,0a38.15,38.15,0,0,0-17,2.43,35.17,35.17,0,0,0-4.92,1.74c-20.66,8.94-38.88,38-44.46,74.63-6.3,41.33,5.64,78.35,27.25,89.24-25.8-7.34-49.69-27-49.69-27,5.11,6.92,10.09,13,14.88,18.25-54-14.11-74.59-55.85-75-56.72,9.16,5,13.74,3.81,13.74,3.81C151.17,734.17,154.59,692,154.59,692c7.64,17.29,20.8,22.47,20.8,22.47-7.33-53.83,31.16-77.56,31.16-77.56s-2.36,3.62-2.84,14.62c6.56-19.07,25.79-29.54,38.45-33.62,7.85-2.53,24.29-3,42.65-2.86,11.66.07,24.08.36,35.58.48q2.24,0,4.44-.06c27.87-1,52.53-13.57,52.53-13.57A24.39,24.39,0,0,0,392.38,620.91Z" transform="translate(-54.56 47.28)"/><path class="cls-16" d="M344.65,648.78c-3,.38-6.22.62-9.49.7C339.15,649.25,342.52,649,344.65,648.78Z" transform="translate(-54.56 47.28)"/><path class="cls-17" d="M286.27,651.93c-2.83,1-4.63,1.92-4.92,1.74A35.17,35.17,0,0,1,286.27,651.93Z" transform="translate(-54.56 47.28)"/><path class="cls-16" d="M401,604.49c-.86,3.93-3.89,10.07-8.61,16.42a24.39,24.39,0,0,1-15-19.06,23.4,23.4,0,0,1-.26-3.27v-.3a23.75,23.75,0,0,1,.9-6.57c.65.4,1.28.76,1.87,1.08a25.77,25.77,0,0,0,3.38,1.61c6.63,2.4,16.58,2.46,17.86,7A6.76,6.76,0,0,1,401,604.49Z" transform="translate(-54.56 47.28)"/><path class="cls-16" d="M260.33,553.85s14.57-12.11,33.81-6.14,23.24,25.87,23.24,25.87" transform="translate(-54.56 47.28)"/><path class="cls-18" d="M487.28,408.33" transform="translate(-54.56 47.28)"/><path class="cls-18" d="M471.42,472.1" transform="translate(-54.56 47.28)"/><path class="cls-19" d="M371.71,582.22" transform="translate(-54.56 47.28)"/><path class="cls-19" d="M214,490" transform="translate(-54.56 47.28)"/><path class="cls-19" d="M214.34,489.92" transform="translate(-54.56 47.28)"/><path class="cls-19" d="M222.5,488.64" transform="translate(-54.56 47.28)"/><path class="cls-19" d="M328.63,531.71c.6,1,3.79,6,7.78,13.7l1.31,2.57" transform="translate(-54.56 47.28)"/><path class="cls-19" d="M325.14,530.44" transform="translate(-54.56 47.28)"/><path class="cls-19" d="M401,604.49c-.86,3.93-3.89,10.07-8.61,16.42-5.42,7.3-13.11,14.87-22.32,19.64l0,0c-5.74,3.75-14,6.6-23.69,8l-.18,0c-.2,0-.43.07-.68.1l-.36,0h-.05l-.41,0c-3,.38-6.22.62-9.49.7h0c-10.15.55-24.24.87-31.82,0a38.15,38.15,0,0,0-17,2.43c-2.83,1-4.63,1.92-4.92,1.74-20.66,8.94-38.88,38-44.46,74.63-6.3,41.33,5.64,78.35,27.25,89.24-25.8-7.34-49.69-27-49.69-27,5.11,6.92,10.09,13,14.88,18.25-54-14.11-74.59-55.85-75-56.72,9.16,5,13.74,3.81,13.74,3.81C151.17,734.17,154.59,692,154.59,692c7.64,17.29,20.8,22.47,20.8,22.47-7.33-53.83,31.16-77.56,31.16-77.56s-2.36,3.62-2.84,14.62c6.56-19.07,25.79-29.54,38.45-33.62,7.85-2.53,24.29-3,42.65-2.86,11.66.07,24.08.36,35.58.48q2.24,0,4.44-.06c27.87-1,52.53-13.57,52.53-13.57a23.4,23.4,0,0,1-.26-3.27v-.3a23.75,23.75,0,0,1,.9-6.57c.65.4,1.28.76,1.87,1.08a25.77,25.77,0,0,0,3.38,1.61c6.63,2.4,16.58,2.46,17.86,7A6.76,6.76,0,0,1,401,604.49Z" transform="translate(-54.56 47.28)"/><path class="cls-20" d="M401.11,601.37c-1.28-4.51-11.23-4.57-17.86-7a25.77,25.77,0,0,1-3.38-1.61c-.59-.32-1.22-.68-1.87-1.08a23.75,23.75,0,0,0-.9,6.57v.3a23.4,23.4,0,0,0,.26,3.27s-24.66,12.57-52.53,13.57q-2.2.08-4.44.06c-11.5-.12-23.92-.41-35.58-.48-18.36-.11-34.8.33-42.65,2.86-12.66,4.08-31.89,14.55-38.45,33.62.48-11,2.84-14.62,2.84-14.62s-38.49,23.73-31.16,77.56c0,0-13.16-5.18-20.8-22.47,0,0-3.42,42.22,13.47,63.94,0,0-4.58,1.2-13.74-3.81.42.87,21,42.61,75,56.72-4.79-5.29-9.77-11.33-14.88-18.25,0,0,23.89,19.65,49.69,27-21.61-10.89-33.55-47.91-27.25-89.24,5.58-36.6,23.8-65.69,44.46-74.63.29.18,2.09-.71,4.92-1.74a38.15,38.15,0,0,1,17-2.43c7.58.85,21.67.53,31.82,0h0c3.27-.08,6.44-.32,9.49-.7l.41,0h.05l.36,0c.25,0,.48-.06.68-.1l.18,0c9.67-1.39,17.95-4.24,23.69-8l0,0c9.21-4.77,16.9-12.34,22.32-19.64,4.72-6.35,7.75-12.49,8.61-16.42A6.76,6.76,0,0,0,401.11,601.37ZM337.72,548l1.06,2.08c.27.54.53,1.07.81,1.61.47.93.94,1.87,1.42,2.8.17.35.35.69.53,1,.29.59.6,1.16.89,1.74l.83,1.59.59,1.11.47.88c.36.66.72,1.31,1.07,1.93l.42.74c.27.48.55,1,.82,1.41.41.68.81,1.34,1.21,2l.39.6.18.26c.13.2.27.39.4.57a18.33,18.33,0,0,0,2,2.44c1.75,1.75,4,3.78,6.55,5.91,1,.82,2,1.65,3,2.48l1,.79c2.63,2.09,5.39,4.18,8.07,6.1l8.58,5.69m-49.37-60c.6,1,3.79,6,7.78,13.7l1.31,2.57" transform="translate(-54.56 47.28)"/><path class="cls-20" d="M328.63,531.71c.6,1,3.79,6,7.78,13.7l1.31,2.57" transform="translate(-54.56 47.28)"/><path class="cls-20" d="M325.14,530.44" transform="translate(-54.56 47.28)"/><path class="cls-20" d="M378,591.71" transform="translate(-54.56 47.28)"/><path class="cls-21" d="M219.87,489l0,0" transform="translate(-54.56 47.28)"/><path class="cls-21" d="M220.76,490.08" transform="translate(-54.56 47.28)"/><path class="cls-19" d="M201.86,545" transform="translate(-54.56 47.28)"/><path class="cls-22" d="M401,604.49c-.86,3.93-3.89,10.07-8.61,16.42-5.42,7.3-13.11,14.87-22.32,19.64l0,0c-5.74,3.75-14,6.6-23.69,8l-.18,0c-.2,0-.43.07-.68.1l-.36,0h-.05l-.41,0c-3,.38-6.22.62-9.49.7h0c-10.15.55-24.24.87-31.82,0a38.15,38.15,0,0,0-17,2.43c-2.83,1-4.63,1.92-4.92,1.74-20.66,8.94-38.88,38-44.46,74.63-6.3,41.33,5.64,78.35,27.25,89.24-25.8-7.34-49.69-27-49.69-27,5.11,6.92,10.09,13,14.88,18.25-54-14.11-74.59-55.85-75-56.72,9.16,5,13.74,3.81,13.74,3.81C151.17,734.17,154.59,692,154.59,692c7.64,17.29,20.8,22.47,20.8,22.47-7.33-53.83,31.16-77.56,31.16-77.56s-2.36,3.62-2.84,14.62c6.56-19.07,25.79-29.54,38.45-33.62,7.85-2.53,24.29-3,42.65-2.86,11.66.07,24.08.36,35.58.48q2.24,0,4.44-.06c27.87-1,52.53-13.57,52.53-13.57a23.4,23.4,0,0,1-.26-3.27v-.3a23.75,23.75,0,0,1,.9-6.57c.65.4,1.28.76,1.87,1.08a25.77,25.77,0,0,0,3.38,1.61c6.63,2.4,16.58,2.46,17.86,7A6.76,6.76,0,0,1,401,604.49Z" transform="translate(-54.56 47.28)"/><path class="cls-22" d="M246.48,487.84" transform="translate(-54.56 47.28)"/><path class="cls-14" d="M204.74,491.88" transform="translate(-54.56 47.28)"/><path class="cls-23" d="M222.78,488.52c-.28.21-.56.41-.83.63-.55.11-1.11.23-1.66.36l-.2.05a244.79,244.79,0,0,0-26.86,7.9h0c-10.62-8.51-17.31-22.52-21.52-36.88,13-25.53,34.26-35.12,34.26-35.12C206.26,426.49,207.63,465.88,222.78,488.52Z" transform="translate(-54.56 47.28)"/><path class="cls-14" d="M169.38,451.67" transform="translate(-54.56 47.28)"/><path class="cls-14" d="M525.46,633.69A226.14,226.14,0,0,0,514.73,583q-1-2.91-2-5.8c-.37-1-.74-2-1.13-3s-.67-1.72-1-2.58a134.51,134.51,0,0,1-10.61-22.94c-.73-2.08-1.43-4.18-2.07-6.3-11.25-20-17.84-44.19-17.84-70.3,0-42.67,17.6-80.3,44.4-102.6-35.68-3.95-78.89,7.44-117.86,34.14-34.12,23.38-58.46,54-70.16,84.59a125.69,125.69,0,0,0-5.25,17.21c-.2.9-.4,1.8-.57,2.7a98.84,98.84,0,0,0-2,23.57c0-.07-.06-.13-.08-.16l0,0a78.08,78.08,0,0,0-6.28-8.28,90.58,90.58,0,0,0-16.68-14.94c-16-11.18-36.45-18.61-59.09-20.46h-1A82.38,82.38,0,0,0,222,489.15c-.55.11-1.11.23-1.66.36l-.2.05a244.79,244.79,0,0,0-26.86,7.9h0c-10.62-8.51-17.31-22.52-21.52-36.88-.88-3-1.66-6-2.33-8.91a207.87,207.87,0,0,1-4.88-42S95,447.81,125.41,535.48c-42.57,34.85-70.28,85.2-70.28,145.28,0,106.55,85.22,192.93,190.35,192.93h.63c-.63,0-1.25,0-1.88,0,.75,0,1.51,0,2.27,0h115c75.62-21,138.26-81.89,158.4-164.5A227.59,227.59,0,0,0,525.46,633.69ZM401,604.49c-.86,3.93-3.89,10.07-8.61,16.42-5.42,7.3-13.11,14.87-22.32,19.64l0,0c-5.74,3.75-14,6.6-23.69,8l-.18,0c-.2,0-.43.07-.68.1l-.36,0h-.05l-.41,0c-3,.38-6.22.62-9.49.7h0c-10.15.55-24.24.87-31.82,0a38.15,38.15,0,0,0-17,2.43c-2.83,1-4.63,1.92-4.92,1.74-20.66,8.94-38.88,38-44.46,74.63-6.3,41.33,5.64,78.35,27.25,89.24-25.8-7.34-49.69-27-49.69-27,5.11,6.92,10.09,13,14.88,18.25-54-14.11-74.59-55.85-75-56.72,9.16,5,13.74,3.81,13.74,3.81C151.17,734.17,154.59,692,154.59,692c7.64,17.29,20.8,22.47,20.8,22.47-7.33-53.83,31.16-77.56,31.16-77.56s-2.36,3.62-2.84,14.62c6.56-19.07,25.79-29.54,38.45-33.62,7.85-2.53,24.29-3,42.65-2.86,11.66.07,24.08.36,35.58.48q2.24,0,4.44-.06c27.87-1,52.53-13.57,52.53-13.57a23.4,23.4,0,0,1-.26-3.27v-.3a23.75,23.75,0,0,1,.9-6.57c.65.4,1.28.76,1.87,1.08a25.77,25.77,0,0,0,3.38,1.61c6.63,2.4,16.58,2.46,17.86,7A6.76,6.76,0,0,1,401,604.49Z" transform="translate(-54.56 47.28)"/></g></svg>